<svg xmlns="http://www.w3.org/2000/svg" viewBox="0 0 640 140" width="640" height="140" font-family="sans-serif"><title>NMC/BTC daily close, last 90 days</title><rect x="0" y="0" width="640" height="140" fill="#fafbfc" stroke="#e3e6ea"/><polyline fill="none" stroke="#f7931a" stroke-width="2" points="8.0,132.0 15.0,132.0 22.0,132.0 29.0,132.0 36.0,132.0 43.1,132.0 50.1,132.0 57.1,132.0 64.1,38.0 71.1,82.1 78.1,37.5 85.1,82.1 92.1,82.1 99.1,82.1 106.2,82.1 113.2,82.1 120.2,37.5 127.2,33.8 134.2,33.8 141.2,33.8 148.2,33.8 155.2,21.3 162.2,21.3 169.3,21.3 176.3,21.3 183.3,21.3 190.3,21.3 197.3,21.3 204.3,21.3 211.3,21.3 218.3,21.3 225.3,21.3 232.4,21.3 239.4,21.3 246.4,21.3 253.4,21.3 260.4,21.3 267.4,21.3 274.4,21.3 281.4,21.3 288.4,21.3 295.5,21.3 302.5,21.3 309.5,21.3 316.5,21.3 323.5,12.6 330.5,12.6 337.5,12.6 344.5,80.4 351.6,80.4 358.6,80.4 365.6,80.4 372.6,80.4 379.6,80.4 386.6,80.4 393.6,80.4 400.6,90.4 407.6,90.4 414.7,90.4 421.7,90.4 428.7,77.1 435.7,77.1 442.7,77.1 449.7,77.1 456.7,77.1 463.7,77.1 470.7,77.1 477.8,77.1 484.8,77.1 491.8,77.1 498.8,77.1 505.8,77.1 512.8,77.1 519.8,77.1 526.8,8.0 533.8,8.0 540.9,77.1 547.9,77.1 554.9,77.1 561.9,77.1 568.9,77.1 575.9,77.1 582.9,77.1 589.9,77.1 596.9,77.1 604.0,77.1 611.0,77.1 618.0,77.1 625.0,77.1 632.0,77.1"/><text x="8" y="16" font-size="12" fill="#6b7280">NMC/BTC, 90 days</text><text x="632" y="16" text-anchor="end" font-size="12" fill="#6b7280">high 0.00001499</text><text x="632" y="128" text-anchor="end" font-size="12" fill="#6b7280">low 0.00001201</text></svg>
